<svg width="80" height="112" viewBox="0 0 80 112" fill="none" xmlns="http://www.w3.org/2000/svg">
<path d="M40 73.033C49.15 73.033 57.9252 69.486 64.3952 63.1723C70.8652 56.8586 74.5 48.2953 74.5 39.3664C74.5 30.4374 70.8652 21.8742 64.3952 15.5604C57.9252 9.24672 49.15 5.69971 40 5.69971C30.85 5.69971 22.0748 9.24672 15.6048 15.5604C9.13481 21.8742 5.5 30.4374 5.5 39.3664C5.5 48.2953 9.13481 56.8586 15.6048 63.1723C22.0748 69.486 30.85 73.033 40 73.033ZM40 73.033V95.4775M40 95.4775V106.7M40 95.4775H28.5M40 95.4775H51.5" stroke="black" stroke-width="10" stroke-linecap="round" stroke-linejoin="round"/>
</svg>
