<svg width="96" height="97" viewBox="0 0 96 97" fill="none" xmlns="http://www.w3.org/2000/svg">
<path fill-rule="evenodd" clip-rule="evenodd" d="M96 31.0156C96 32.3556 95.4677 33.6408 94.5201 34.5883C93.5726 35.5359 92.2874 36.0682 90.9474 36.0682C89.6073 36.0682 88.3222 35.5359 87.3746 34.5883C86.4271 33.6408 85.8947 32.3556 85.8947 31.0156V17.9494L68.0235 35.8206C73.8535 43.4628 76.5616 53.0349 75.5992 62.5987C74.6369 72.1625 70.0762 81.0033 62.8405 87.3308C55.6049 93.6583 46.235 96.9998 36.6283 96.6785C27.0216 96.3573 17.8959 92.3973 11.0992 85.6006C4.30238 78.8038 0.342441 69.6781 0.0211899 60.0714C-0.300062 50.4647 3.04138 41.0948 9.36891 33.8592C15.6964 26.6235 24.5372 22.0628 34.101 21.1005C43.6648 20.1382 53.2369 22.8462 60.8791 28.6762L78.7503 10.805H65.6842C64.3441 10.805 63.059 10.2727 62.1114 9.3251C61.1639 8.37755 60.6315 7.09239 60.6315 5.75235C60.6315 4.4123 61.1639 3.12714 62.1114 2.17959C63.059 1.23204 64.3441 0.699707 65.6842 0.699707H89.6842C93.1705 0.699707 96 3.52919 96 7.01551V31.0156ZM37.8946 31.0156C30.5244 31.0156 23.456 33.9434 18.2445 39.1549C13.0329 44.3665 10.1051 51.4348 10.1051 58.8051C10.1051 66.1753 13.0329 73.2437 18.2445 78.4552C23.456 83.6668 30.5244 86.5946 37.8946 86.5946C45.2649 86.5946 52.3333 83.6668 57.5448 78.4552C62.7563 73.2437 65.6842 66.1753 65.6842 58.8051C65.6842 51.4348 62.7563 44.3665 57.5448 39.1549C52.3333 33.9434 45.2649 31.0156 37.8946 31.0156Z" fill="black"/>
</svg>
