<svg width="101" height="90" viewBox="0 0 101 90" fill="none" xmlns="http://www.w3.org/2000/svg">
<path d="M89.3462 11.7391H75.886L69.2675 1.7413C68.913 1.20596 68.4328 0.766971 67.8695 0.463234C67.3063 0.159497 66.6773 0.000386437 66.0385 0H34.9615C34.3227 0.000386437 33.6937 0.159497 33.1305 0.463234C32.5672 0.766971 32.087 1.20596 31.7325 1.7413L25.1092 11.7391H11.6538C8.56305 11.7391 5.59885 12.9759 3.41333 15.1774C1.22781 17.379 0 20.3648 0 23.4783V78.2609C0 81.3743 1.22781 84.3602 3.41333 86.5617C5.59885 88.7632 8.56305 90 11.6538 90H89.3462C92.437 90 95.4012 88.7632 97.5867 86.5617C99.7722 84.3602 101 81.3743 101 78.2609V23.4783C101 20.3648 99.7722 17.379 97.5867 15.1774C95.4012 12.9759 92.437 11.7391 89.3462 11.7391ZM93.2308 78.2609C93.2308 79.2987 92.8215 80.294 92.093 81.0278C91.3645 81.7617 90.3764 82.1739 89.3462 82.1739H11.6538C10.6236 82.1739 9.63552 81.7617 8.90701 81.0278C8.1785 80.294 7.76923 79.2987 7.76923 78.2609V23.4783C7.76923 22.4405 8.1785 21.4452 8.90701 20.7113C9.63552 19.9775 10.6236 19.5652 11.6538 19.5652H27.1923C27.832 19.5656 28.4619 19.4069 29.0261 19.1031C29.5903 18.7994 30.0712 18.3599 30.4263 17.8239L37.0398 7.82609H63.9553L70.5737 17.8239C70.9288 18.3599 71.4097 18.7994 71.9739 19.1031C72.5381 19.4069 73.168 19.5656 73.8077 19.5652H89.3462C90.3764 19.5652 91.3645 19.9775 92.093 20.7113C92.8215 21.4452 93.2308 22.4405 93.2308 23.4783V78.2609ZM50.5 27.3913C46.2743 27.3913 42.1435 28.6535 38.63 31.0184C35.1165 33.3832 32.3781 36.7444 30.761 40.677C29.1439 44.6096 28.7208 48.9369 29.5451 53.1117C30.3695 57.2865 32.4044 61.1213 35.3924 64.1312C38.3804 67.1411 42.1873 69.1908 46.3318 70.0212C50.4763 70.8517 54.7722 70.4255 58.6762 68.7965C62.5802 67.1676 65.917 64.4091 68.2647 60.8699C70.6123 57.3306 71.8654 53.1696 71.8654 48.913C71.859 43.2071 69.6059 37.7367 65.6005 33.702C61.5951 29.6673 56.1645 27.3978 50.5 27.3913ZM50.5 62.6087C47.8109 62.6087 45.1823 61.8055 42.9464 60.3006C40.7105 58.7957 38.9678 56.6567 37.9388 54.1541C36.9097 51.6516 36.6405 48.8979 37.1651 46.2412C37.6897 43.5845 38.9846 41.1441 40.8861 39.2288C42.7875 37.3134 45.2101 36.009 47.8475 35.4805C50.4849 34.9521 53.2187 35.2233 55.703 36.2599C58.1874 37.2965 60.3108 39.0519 61.8048 41.3041C63.2988 43.5564 64.0962 46.2043 64.0962 48.913C64.0962 52.5454 62.6637 56.0289 60.1139 58.5973C57.5642 61.1658 54.1059 62.6087 50.5 62.6087Z" fill="#61B0BC"/>
</svg>
