<svg width="52" height="52" viewBox="0 0 52 52" fill="none" xmlns="http://www.w3.org/2000/svg">
<path d="M26 50C39.2548 50 50 39.2548 50 26C50 12.7452 39.2548 2 26 2C12.7452 2 2 12.7452 2 26C2 39.2548 12.7452 50 26 50Z" fill="white" stroke="#61B0BC" stroke-width="3" stroke-miterlimit="10" stroke-linecap="round"/>
<path d="M26.5 31V46.3126" stroke="#61B0BC" stroke-width="2" stroke-miterlimit="10" stroke-linecap="round"/>
<path d="M33.6484 31V42.2293" stroke="#61B0BC" stroke-width="2" stroke-miterlimit="10" stroke-linecap="round"/>
<path d="M18.3359 31V42.2293" stroke="#61B0BC" stroke-width="2" stroke-miterlimit="10" stroke-linecap="round"/>
<path d="M11 31V38" stroke="#61B0BC" stroke-width="2" stroke-miterlimit="10" stroke-linecap="round"/>
<path d="M41 31V38" stroke="#61B0BC" stroke-width="2" stroke-miterlimit="10" stroke-linecap="round"/>
<path d="M7.10421 26.5H45.8962" stroke="#61B0BC" stroke-width="2" stroke-miterlimit="10" stroke-linecap="round"/>
<path d="M12.69 21.7804C13.6234 21.7804 14.38 21.0238 14.38 20.0904C14.38 19.157 13.6234 18.4004 12.69 18.4004C11.7566 18.4004 11 19.157 11 20.0904C11 21.0238 11.7566 21.7804 12.69 21.7804Z" fill="#61B0BC"/>
<path d="M26.065 21.7804C26.9984 21.7804 27.755 21.0238 27.755 20.0904C27.755 19.157 26.9984 18.4004 26.065 18.4004C25.1316 18.4004 24.375 19.157 24.375 20.0904C24.375 21.0238 25.1316 21.7804 26.065 21.7804Z" fill="#61B0BC"/>
<path d="M39.4556 21.7804C40.389 21.7804 41.1456 21.0238 41.1456 20.0904C41.1456 19.157 40.389 18.4004 39.4556 18.4004C38.5223 18.4004 37.7656 19.157 37.7656 20.0904C37.7656 21.0238 38.5223 21.7804 39.4556 21.7804Z" fill="#61B0BC"/>
<path d="M19.3775 15.38C20.3109 15.38 21.0675 14.6234 21.0675 13.69C21.0675 12.7566 20.3109 12 19.3775 12C18.4441 12 17.6875 12.7566 17.6875 13.69C17.6875 14.6234 18.4441 15.38 19.3775 15.38Z" fill="#61B0BC"/>
<path d="M32.7681 15.38C33.7015 15.38 34.4581 14.6234 34.4581 13.69C34.4581 12.7566 33.7015 12 32.7681 12C31.8348 12 31.0781 12.7566 31.0781 13.69C31.0781 14.6234 31.8348 15.38 32.7681 15.38Z" fill="#61B0BC"/>
</svg>
