<svg width="52" height="52" viewBox="0 0 52 52" fill="none" xmlns="http://www.w3.org/2000/svg">
<path d="M26 50C39.2548 50 50 39.2548 50 26C50 12.7452 39.2548 2 26 2C12.7452 2 2 12.7452 2 26C2 39.2548 12.7452 50 26 50Z" fill="white" stroke="#61B0BC" stroke-width="3" stroke-miterlimit="10" stroke-linecap="round"/>
<path d="M39.5663 34.4524C40.5192 34.4524 41.2916 33.68 41.2916 32.7272C41.2916 31.7744 40.5192 31.002 39.5663 31.002C38.6135 31.002 37.8411 31.7744 37.8411 32.7272C37.8411 33.68 38.6135 34.4524 39.5663 34.4524Z" fill="#61B0BC"/>
<path d="M25.9046 34.4524C26.8574 34.4524 27.6298 33.68 27.6298 32.7272C27.6298 31.7744 26.8574 31.002 25.9046 31.002C24.9518 31.002 24.1794 31.7744 24.1794 32.7272C24.1794 33.68 24.9518 34.4524 25.9046 34.4524Z" fill="#61B0BC"/>
<path d="M12.2429 34.4524C13.1957 34.4524 13.9681 33.68 13.9681 32.7272C13.9681 31.7744 13.1957 31.002 12.2429 31.002C11.29 31.002 10.5176 31.7744 10.5176 32.7272C10.5176 33.68 11.29 34.4524 12.2429 34.4524Z" fill="#61B0BC"/>
<path d="M32.7394 40.9866C33.6923 40.9866 34.4647 40.2142 34.4647 39.2614C34.4647 38.3085 33.6923 37.5361 32.7394 37.5361C31.7866 37.5361 31.0142 38.3085 31.0142 39.2614C31.0142 40.2142 31.7866 40.9866 32.7394 40.9866Z" fill="#61B0BC"/>
<path d="M19.0778 40.9866C20.0306 40.9866 20.803 40.2142 20.803 39.2614C20.803 38.3085 20.0306 37.5361 19.0778 37.5361C18.1249 37.5361 17.3525 38.3085 17.3525 39.2614C17.3525 40.2142 18.1249 40.9866 19.0778 40.9866Z" fill="#61B0BC"/>
<path d="M46 26H6" stroke="#61B0BC" stroke-width="2" stroke-miterlimit="10" stroke-linecap="round"/>
</svg>
