<svg width="92" height="92" viewBox="0 0 92 92" fill="none" xmlns="http://www.w3.org/2000/svg">
<path d="M30.866 26.2496L41.4 15.667V59.792C41.4 61.0123 41.8846 62.1826 42.7473 63.0455C43.61 63.9084 44.78 64.3931 46 64.3931C47.22 64.3931 48.39 63.9084 49.2527 63.0455C50.1154 62.1826 50.6 61.0123 50.6 59.792V15.667L61.134 26.2496C61.5616 26.6809 62.0704 27.0232 62.6309 27.2568C63.1915 27.4904 63.7927 27.6106 64.4 27.6106C65.0073 27.6106 65.6085 27.4904 66.1691 27.2568C66.7296 27.0232 67.2384 26.6809 67.666 26.2496C68.0971 25.8219 68.4394 25.313 68.6729 24.7523C68.9064 24.1916 69.0267 23.5902 69.0267 22.9828C69.0267 22.3754 68.9064 21.774 68.6729 21.2133C68.4394 20.6526 68.0971 20.1437 67.666 19.716L49.266 1.31139C48.8285 0.892498 48.3127 0.564137 47.748 0.345148C46.6281 -0.115049 45.3719 -0.115049 44.252 0.345148C43.6873 0.564137 43.1715 0.892498 42.734 1.31139L24.334 19.716C23.9051 20.145 23.5649 20.6543 23.3328 21.2148C23.1006 21.7753 22.9812 22.3761 22.9812 22.9828C22.9812 23.5895 23.1006 24.1903 23.3328 24.7508C23.5649 25.3113 23.9051 25.8206 24.334 26.2496C24.7629 26.6786 25.2721 27.0189 25.8325 27.2511C26.3928 27.4833 26.9934 27.6028 27.6 27.6028C28.2066 27.6028 28.8072 27.4833 29.3675 27.2511C29.9279 27.0189 30.4371 26.6786 30.866 26.2496ZM87.4 45.9885C86.18 45.9885 85.01 46.4733 84.1473 47.3362C83.2846 48.1991 82.8 49.3694 82.8 50.5897V78.1966C82.8 79.4169 82.3154 80.5872 81.4527 81.4501C80.59 82.313 79.42 82.7977 78.2 82.7977H13.8C12.58 82.7977 11.41 82.313 10.5473 81.4501C9.68464 80.5872 9.2 79.4169 9.2 78.1966V50.5897C9.2 49.3694 8.71536 48.1991 7.85269 47.3362C6.99002 46.4733 5.82 45.9885 4.6 45.9885C3.38 45.9885 2.20998 46.4733 1.34731 47.3362C0.484641 48.1991 0 49.3694 0 50.5897V78.1966C0 81.8575 1.45392 85.3684 4.04193 87.9571C6.62993 90.5457 10.14 92 13.8 92H78.2C81.86 92 85.3701 90.5457 87.9581 87.9571C90.5461 85.3684 92 81.8575 92 78.1966V50.5897C92 49.3694 91.5154 48.1991 90.6527 47.3362C89.79 46.4733 88.62 45.9885 87.4 45.9885Z" fill="#61B0BC"/>
</svg>